# xmcd CD database file
#
# Track frame offsets:
#	150
#	15908
#	36740
#	58843
#	73650
#	90500
#	101578
#	115705
#	138548
#	148270
#	167620
#	182383
#	199480
#	217090
#	229695
#	249950
#	268558
#
# Disc length: 3827 seconds
#
# Revision: 0
# Processed by: cddbd v1.5PL3 Copyright (c) Steve Scherf et al.
# Submitted via: CDex 1.60beta1
#
DISCID=f70ef111
DTITLE=Paris Washboard - California Here We Come
DYEAR=1993
DGENRE=Jazz
TTITLE0=Down in Honky Tonky Town 
TTITLE1=I Ain't Got Nobody 
TTITLE2=California Here I Come 
TTITLE3=Minor Drag 
TTITLE4=Breeze (Blow My Baby Back to Me) 
TTITLE5=Do-Re-Mi 
TTITLE6=Hello Jelly! 
TTITLE7=Hold My Hand 
TTITLE8=Candy Lips (I'm Stuck on You) 
TTITLE9=I'm Crazy 'Bout My Baby (And My Baby's Crazy 'Bout Me) 
TTITLE10=Maple Leaf Rag 
TTITLE11=Love Me or Leave Me 
TTITLE12=Who'sit 
TTITLE13=Kansas City Stomp 
TTITLE14=There'll Be Some Changes Made 
TTITLE15=New Orleans 
TTITLE16=Baby Brown 
EXTD=YEAR: 1993
EXTT0=
EXTT1=
EXTT2=
EXTT3=
EXTT4=
EXTT5=
EXTT6=
EXTT7=
EXTT8=
EXTT9=
EXTT10=
EXTT11=
EXTT12=
EXTT13=
EXTT14=
EXTT15=
EXTT16=
PLAYORDER=
